RobotoSerifMicro-RegularWideItalic03ip.ufo
<glyph name="slash" format="2">
  <advance width="666"/>
  <unicode hex="002F"/>
  <outline>
    <contour>
      <point x="669" y="780.0" type="line"/>
      <point x="5" y="-158.0" type="line"/>
      <point x="96" y="-158.0" type="line"/>
      <point x="760" y="780.0" type="line"/>
    </contour>
  </outline>
</glyph>
<glyph name="zero" format="2">
  <advance width="680"/>
  <unicode hex="0030"/>
  <outline>
    <contour>
      <point x="344" y="-11" type="curve" smooth="yes"/>
      <point x="518" y="-11"/>
      <point x="671" y="107"/>
      <point x="671" y="389" type="curve" smooth="yes"/>
      <point x="671" y="564"/>
      <point x="573" y="649"/>
      <point x="438" y="649" type="curve" smooth="yes"/>
      <point x="264" y="649"/>
      <point x="111" y="531"/>
      <point x="111" y="249" type="curve" smooth="yes"/>
      <point x="111" y="74"/>
      <point x="210" y="-11"/>
    </contour>
    <contour>
      <point x="359" y="53" type="curve"/>
      <point x="255" y="53.0"/>
      <point x="205.0" y="112"/>
      <point x="205" y="259" type="curve" smooth="yes"/>
      <point x="205" y="498"/>
      <point x="312" y="585"/>
      <point x="423" y="585" type="curve" smooth="yes"/>
      <point x="530.0" y="585.0"/>
      <point x="577.0" y="524"/>
      <point x="577" y="379" type="curve" smooth="yes"/>
      <point x="577" y="140"/>
      <point x="470" y="53"/>
    </contour>
  </outline>
</glyph>
<glyph name="four" format="2">
  <advance width="680"/>
  <unicode hex="0034"/>
  <outline>
    <contour>
      <point x="75" y="98" type="line"/>
      <point x="670" y="98" type="line"/>
      <point x="682" y="172" type="line"/>
      <point x="122" y="172" type="line"/>
      <point x="128" y="133" type="line"/>
      <point x="534" y="614" type="line"/>
      <point x="551" y="639" type="line"/>
      <point x="481" y="639" type="line"/>
      <point x="88" y="175" type="line"/>
    </contour>
    <contour>
      <point x="501" y="-83" type="line"/>
      <point x="615" y="639" type="line"/>
      <point x="520" y="639" type="line"/>
      <point x="526" y="627" type="line"/>
      <point x="414" y="-83" type="line"/>
    </contour>
  </outline>
</glyph>
<glyph name="five" format="2">
  <advance width="680"/>
  <unicode hex="0035"/>
  <outline>
    <contour>
      <point x="317" y="-90" type="curve" smooth="yes"/>
      <point x="192" y="-90"/>
      <point x="92" y="-34"/>
      <point x="59" y="56" type="curve"/>
      <point x="132" y="93" type="line"/>
      <point x="170" y="16"/>
      <point x="228" y="-26"/>
      <point x="325" y="-26" type="curve" smooth="yes"/>
      <point x="451" y="-26"/>
      <point x="534" y="52"/>
      <point x="534" y="187" type="curve" smooth="yes"/>
      <point x="534" y="288"/>
      <point x="481" y="338"/>
      <point x="392" y="338" type="curve" smooth="yes"/>
      <point x="316.0" y="338.0"/>
      <point x="268" y="302"/>
      <point x="223" y="242" type="curve"/>
      <point x="162" y="242" type="line"/>
      <point x="225" y="639" type="line"/>
      <point x="658" y="639" type="line"/>
      <point x="631" y="565" type="line"/>
      <point x="253" y="565" type="line"/>
      <point x="286" y="619" type="line"/>
      <point x="230" y="277" type="line"/>
      <point x="226" y="276"/>
      <point x="217" y="274"/>
      <point x="203" y="272" type="curve"/>
      <point x="261" y="354"/>
      <point x="323" y="396"/>
      <point x="423" y="396" type="curve" smooth="yes"/>
      <point x="564" y="396"/>
      <point x="628" y="305"/>
      <point x="628" y="197" type="curve" smooth="yes"/>
      <point x="628.0" y="8.0"/>
      <point x="491" y="-90"/>
    </contour>
  </outline>
</glyph>
<glyph name="underscore" format="2">
  <advance width="730"/>
  <unicode hex="005F"/>
  <guideline x="-1" y="-90" angle="81" identifier="8nUT67QiV1"/>
  <outline>
    <contour>
      <point x="5" y="-96" type="line"/>
      <point x="-4" y="-154" type="line"/>
      <point x="686" y="-154" type="line"/>
      <point x="695" y="-96" type="line"/>
    </contour>
  </outline>
</glyph>
<glyph name="s" format="2">
  <advance width="656"/>
  <unicode hex="0073"/>
  <guideline x="395" y="339" angle="81" identifier="kp3qL5YO1p"/>
  <anchor x="431" y="565" name="top"/>
  <anchor x="342" y="0" name="bottom"/>
  <outline>
    <contour>
      <point x="363" y="-12" type="curve" smooth="yes"/>
      <point x="515" y="-12"/>
      <point x="614" y="45"/>
      <point x="614" y="164" type="curve" smooth="yes"/>
      <point x="614" y="244"/>
      <point x="567" y="283"/>
      <point x="416" y="327" type="curve" smooth="yes"/>
      <point x="292" y="363"/>
      <point x="252" y="378"/>
      <point x="252" y="430" type="curve" smooth="yes"/>
      <point x="252" y="482"/>
      <point x="290" y="515"/>
      <point x="382" y="515" type="curve" smooth="yes"/>
      <point x="466" y="515"/>
      <point x="528" y="493"/>
      <point x="571" y="455" type="curve"/>
      <point x="571" y="486"/>
      <point x="552" y="511"/>
      <point x="534" y="522" type="curve"/>
      <point x="515" y="401" type="line"/>
      <point x="605" y="401" type="line"/>
      <point x="622" y="513" type="line"/>
      <point x="592" y="539"/>
      <point x="508" y="575"/>
      <point x="392" y="575" type="curve" smooth="yes"/>
      <point x="233" y="575"/>
      <point x="163" y="503"/>
      <point x="163" y="420" type="curve" smooth="yes"/>
      <point x="163" y="329"/>
      <point x="229" y="290"/>
      <point x="354" y="258" type="curve" smooth="yes"/>
      <point x="485" y="225"/>
      <point x="522" y="197"/>
      <point x="522" y="145" type="curve" smooth="yes"/>
      <point x="522" y="69"/>
      <point x="448" y="48"/>
      <point x="360" y="48" type="curve" smooth="yes"/>
      <point x="276" y="48"/>
      <point x="194" y="74"/>
      <point x="154" y="112" type="curve"/>
      <point x="148" y="79"/>
      <point x="156" y="46"/>
      <point x="175" y="32" type="curve"/>
      <point x="199" y="186" type="line"/>
      <point x="109" y="186" type="line"/>
      <point x="90" y="61" type="line"/>
      <point x="154" y="19"/>
      <point x="246" y="-12"/>
    </contour>
  </outline>
</glyph>
<glyph name="registered" format="2">
  <advance width="968"/>
  <unicode hex="00AE"/>
  <outline>
    <contour>
      <point x="540" y="-28" type="curve" smooth="yes"/>
      <point x="292" y="-28"/>
      <point x="137" y="118"/>
      <point x="137" y="355" type="curve" smooth="yes"/>
      <point x="137" y="592"/>
      <point x="292" y="738"/>
      <point x="540" y="738" type="curve" smooth="yes"/>
      <point x="789" y="738"/>
      <point x="944" y="592"/>
      <point x="944" y="355" type="curve" smooth="yes"/>
      <point x="944" y="118"/>
      <point x="789" y="-28"/>
    </contour>
    <contour>
      <point x="373" y="153" type="line"/>
      <point x="561" y="153" type="line"/>
      <point x="561" y="201" type="line"/>
      <point x="550" y="201" type="line" smooth="yes"/>
      <point x="522" y="201"/>
      <point x="496" y="202"/>
      <point x="496" y="206" type="curve" smooth="yes"/>
      <point x="496" y="322" type="line"/>
      <point x="579" y="322" type="line" smooth="yes"/>
      <point x="684" y="322"/>
      <point x="734" y="371"/>
      <point x="734" y="438" type="curve" smooth="yes"/>
      <point x="734" y="509"/>
      <point x="688" y="552"/>
      <point x="580" y="552" type="curve" smooth="yes"/>
      <point x="373" y="552" type="line"/>
      <point x="373" y="504" type="line"/>
      <point x="379" y="504" type="line" smooth="yes"/>
      <point x="407" y="504"/>
      <point x="428" y="500"/>
      <point x="428" y="484" type="curve" smooth="yes"/>
      <point x="428" y="220" type="line" smooth="yes"/>
      <point x="428" y="205"/>
      <point x="407" y="201"/>
      <point x="379" y="201" type="curve" smooth="yes"/>
      <point x="373" y="201" type="line"/>
    </contour>
    <contour>
      <point x="576" y="503" type="line" smooth="yes"/>
      <point x="634" y="503"/>
      <point x="662" y="485"/>
      <point x="662" y="436" type="curve" smooth="yes"/>
      <point x="662" y="387"/>
      <point x="634" y="366"/>
      <point x="576" y="366" type="curve" smooth="yes"/>
      <point x="496" y="366" type="line"/>
      <point x="496" y="503" type="line"/>
    </contour>
    <contour>
      <point x="540" y="21" type="curve" smooth="yes"/>
      <point x="759" y="21"/>
      <point x="884" y="148"/>
      <point x="884" y="355" type="curve" smooth="yes"/>
      <point x="884" y="562"/>
      <point x="759" y="689"/>
      <point x="540" y="689" type="curve" smooth="yes"/>
      <point x="321" y="689"/>
      <point x="197" y="562"/>
      <point x="197" y="355" type="curve" smooth="yes"/>
      <point x="197" y="148"/>
      <point x="321" y="21"/>
    </contour>
    <contour>
      <point x="570" y="338" type="line"/>
      <point x="659" y="156" type="line"/>
      <point x="764" y="156" type="line"/>
      <point x="764" y="201" type="line"/>
      <point x="748" y="201" type="line" smooth="yes"/>
      <point x="721" y="201"/>
      <point x="712" y="205"/>
      <point x="701" y="225" type="curve" smooth="yes"/>
      <point x="635" y="350" type="line"/>
    </contour>
  </outline>
</glyph>
<glyph name="macron" format="2">
  <advance width="427"/>
  <unicode hex="00AF"/>
  <anchor x="302" y="565" name="_top"/>
  <outline>
    <contour>
      <point x="122" y="773.0" type="line"/>
      <point x="113" y="713.0" type="line"/>
      <point x="540" y="713.0" type="line"/>
      <point x="549" y="773.0" type="line"/>
    </contour>
  </outline>
</glyph>
<glyph name="oslash" format="2">
  <advance width="744"/>
  <unicode hex="00F8"/>
  <anchor x="324" y="565" name="top"/>
  <outline>
    <contour>
      <point x="394" y="-13" type="curve" smooth="yes"/>
      <point x="583" y="-13"/>
      <point x="729" y="121"/>
      <point x="729" y="313" type="curve" smooth="yes"/>
      <point x="729" y="479"/>
      <point x="626" y="575"/>
      <point x="439" y="575" type="curve" smooth="yes"/>
      <point x="252" y="575"/>
      <point x="105" y="437"/>
      <point x="105" y="246" type="curve" smooth="yes"/>
      <point x="105" y="74"/>
      <point x="212" y="-13"/>
    </contour>
    <contour>
      <point x="8" y="-10" type="line"/>
      <point x="106" y="-10" type="line"/>
      <point x="825" y="572" type="line"/>
      <point x="727" y="572" type="line"/>
    </contour>
    <contour>
      <point x="391" y="51" type="curve" smooth="yes"/>
      <point x="332" y="51"/>
      <point x="284" y="66"/>
      <point x="251" y="96" type="curve" smooth="yes"/>
      <point x="217" y="126"/>
      <point x="199" y="173"/>
      <point x="199" y="236" type="curve" smooth="yes"/>
      <point x="199" y="380"/>
      <point x="280" y="511"/>
      <point x="444" y="511" type="curve" smooth="yes"/>
      <point x="504" y="511"/>
      <point x="552" y="495"/>
      <point x="585" y="463" type="curve" smooth="yes"/>
      <point x="617" y="432"/>
      <point x="635" y="385"/>
      <point x="635" y="324" type="curve" smooth="yes"/>
      <point x="635" y="181"/>
      <point x="555" y="51"/>
    </contour>
  </outline>
</glyph>
<glyph name="imacron" format="2">
  <advance width="428"/>
  <unicode hex="012B"/>
  <outline>
    <contour>
      <point x="145" y="775" type="line"/>
      <point x="134" y="710" type="line"/>
      <point x="518" y="710" type="line"/>
      <point x="529" y="775" type="line"/>
    </contour>
    <contour>
      <point x="297" y="218" type="curve" smooth="yes"/>
      <point x="359" y="565" type="line"/>
      <point x="140" y="565" type="line"/>
      <point x="132" y="512" type="line"/>
      <point x="175" y="507" type="line" smooth="yes"/>
      <point x="248" y="499"/>
      <point x="255" y="485"/>
      <point x="249" y="452" type="curve" smooth="yes"/>
      <point x="209" y="223" type="line" smooth="yes"/>
      <point x="192" y="127"/>
      <point x="186" y="97"/>
      <point x="186" y="73" type="curve" smooth="yes"/>
      <point x="186" y="20"/>
      <point x="217" y="0"/>
      <point x="293" y="0" type="curve" smooth="yes"/>
      <point x="337" y="0"/>
      <point x="372" y="0"/>
      <point x="406" y="0" type="curve"/>
      <point x="414" y="50" type="line"/>
      <point x="384" y="50"/>
      <point x="354" y="50"/>
      <point x="317" y="50" type="curve" smooth="yes"/>
      <point x="290" y="50"/>
      <point x="278" y="58"/>
      <point x="278" y="83" type="curve" smooth="yes"/>
      <point x="278" y="102"/>
      <point x="282" y="136"/>
    </contour>
  </outline>
</glyph>
<glyph name="ibreve" format="2">
  <advance width="428"/>
  <unicode hex="012D"/>
  <outline>
    <contour>
      <point x="319.0" y="668.0" type="curve" smooth="yes"/>
      <point x="430.0" y="668.0"/>
      <point x="503.0" y="717.0"/>
      <point x="525.0" y="831.0" type="curve"/>
      <point x="452.0" y="831.0" type="line"/>
      <point x="430.0" y="752.0"/>
      <point x="387.0" y="736.0"/>
      <point x="325.0" y="736.0" type="curve" smooth="yes"/>
      <point x="249.0" y="736.0"/>
      <point x="224.0" y="769.0"/>
      <point x="233.0" y="831.0" type="curve"/>
      <point x="159.0" y="831.0" type="line"/>
      <point x="146.0" y="741.0"/>
      <point x="172.0" y="668.0"/>
    </contour>
    <contour>
      <point x="297" y="218" type="curve" smooth="yes"/>
      <point x="359" y="565" type="line"/>
      <point x="140" y="565" type="line"/>
      <point x="132" y="512" type="line"/>
      <point x="175" y="507" type="line" smooth="yes"/>
      <point x="248" y="499"/>
      <point x="255" y="485"/>
      <point x="249" y="452" type="curve" smooth="yes"/>
      <point x="209" y="223" type="line" smooth="yes"/>
      <point x="192" y="127"/>
      <point x="186" y="97"/>
      <point x="186" y="73" type="curve" smooth="yes"/>
      <point x="186" y="20"/>
      <point x="217" y="0"/>
      <point x="293" y="0" type="curve" smooth="yes"/>
      <point x="337" y="0"/>
      <point x="372" y="0"/>
      <point x="406" y="0" type="curve"/>
      <point x="414" y="50" type="line"/>
      <point x="384" y="50"/>
      <point x="354" y="50"/>
      <point x="317" y="50" type="curve" smooth="yes"/>
      <point x="290" y="50"/>
      <point x="278" y="58"/>
      <point x="278" y="83" type="curve" smooth="yes"/>
      <point x="278" y="102"/>
      <point x="282" y="136"/>
    </contour>
  </outline>
</glyph>
<glyph name="icaron" format="2">
  <advance width="429"/>
  <unicode hex="01D0"/>
  <outline>
    <contour>
      <point x="272" y="656" type="line"/>
      <point x="146" y="819" type="line"/>
      <point x="150" y="844" type="line"/>
      <point x="191" y="844" type="line"/>
      <point x="366" y="698" type="line"/>
      <point x="293" y="716" type="line"/>
      <point x="482" y="844" type="line"/>
      <point x="529" y="844" type="line"/>
      <point x="525" y="819" type="line"/>
      <point x="352" y="656" type="line"/>
    </contour>
    <contour>
      <point x="298" y="218" type="curve" smooth="yes"/>
      <point x="360" y="565" type="line"/>
      <point x="141" y="565" type="line"/>
      <point x="133" y="512" type="line"/>
      <point x="176" y="507" type="line" smooth="yes"/>
      <point x="249" y="499"/>
      <point x="256" y="485"/>
      <point x="250" y="452" type="curve" smooth="yes"/>
      <point x="210" y="223" type="line" smooth="yes"/>
      <point x="193" y="127"/>
      <point x="187" y="97"/>
      <point x="187" y="73" type="curve" smooth="yes"/>
      <point x="187" y="20"/>
      <point x="218" y="0"/>
      <point x="294" y="0" type="curve" smooth="yes"/>
      <point x="338" y="0"/>
      <point x="373" y="0"/>
      <point x="407" y="0" type="curve"/>
      <point x="415" y="50" type="line"/>
      <point x="385" y="50"/>
      <point x="355" y="50"/>
      <point x="318" y="50" type="curve" smooth="yes"/>
      <point x="291" y="50"/>
      <point x="279" y="58"/>
      <point x="279" y="83" type="curve" smooth="yes"/>
      <point x="279" y="102"/>
      <point x="283" y="136"/>
    </contour>
  </outline>
</glyph>
<glyph name="iinvertedbreve" format="2">
  <advance width="428"/>
  <unicode hex="020B"/>
  <outline>
    <contour>
      <point x="322" y="831.0" type="curve" smooth="yes"/>
      <point x="211" y="831"/>
      <point x="138" y="782.0"/>
      <point x="116" y="668.0" type="curve"/>
      <point x="189" y="668.0" type="line"/>
      <point x="211" y="747.0"/>
      <point x="254" y="763"/>
      <point x="316" y="763.0" type="curve" smooth="yes"/>
      <point x="392.0" y="763.0"/>
      <point x="417" y="730.0"/>
      <point x="408" y="668.0" type="curve"/>
      <point x="482" y="668.0" type="line"/>
      <point x="495" y="758"/>
      <point x="469" y="831"/>
    </contour>
    <contour>
      <point x="297" y="218" type="curve" smooth="yes"/>
      <point x="359" y="565" type="line"/>
      <point x="140" y="565" type="line"/>
      <point x="132" y="512" type="line"/>
      <point x="175" y="507" type="line" smooth="yes"/>
      <point x="248" y="499"/>
      <point x="255" y="485"/>
      <point x="249" y="452" type="curve" smooth="yes"/>
      <point x="209" y="223" type="line" smooth="yes"/>
      <point x="192" y="127"/>
      <point x="186" y="97"/>
      <point x="186" y="73" type="curve" smooth="yes"/>
      <point x="186" y="20"/>
      <point x="217" y="0"/>
      <point x="293" y="0" type="curve" smooth="yes"/>
      <point x="337" y="0"/>
      <point x="372" y="0"/>
      <point x="406" y="0" type="curve"/>
      <point x="414" y="50" type="line"/>
      <point x="384" y="50"/>
      <point x="354" y="50"/>
      <point x="317" y="50" type="curve" smooth="yes"/>
      <point x="290" y="50"/>
      <point x="278" y="58"/>
      <point x="278" y="83" type="curve" smooth="yes"/>
      <point x="278" y="102"/>
      <point x="282" y="136"/>
    </contour>
  </outline>
</glyph>
<glyph name="breve" format="2">
  <advance width="377"/>
  <unicode hex="02D8"/>
  <anchor x="277" y="565" name="_top"/>
  <outline>
    <contour>
      <point x="322" y="668" type="curve" smooth="yes"/>
      <point x="447" y="668"/>
      <point x="503" y="736"/>
      <point x="507" y="831" type="curve"/>
      <point x="438" y="831" type="line"/>
      <point x="427" y="760"/>
      <point x="386" y="735"/>
      <point x="317" y="735" type="curve" smooth="yes"/>
      <point x="235" y="735"/>
      <point x="204" y="773"/>
      <point x="203" y="831" type="curve"/>
      <point x="132" y="831" type="line"/>
      <point x="130" y="732"/>
      <point x="178" y="668.0"/>
    </contour>
  </outline>
</glyph>
<glyph name="ring" format="2">
  <advance width="292"/>
  <unicode hex="02DA"/>
  <anchor x="235" y="565" name="_top"/>
  <outline>
    <contour>
      <point x="257" y="680" type="curve" smooth="yes"/>
      <point x="210" y="680"/>
      <point x="183" y="702"/>
      <point x="183" y="742" type="curve" smooth="yes"/>
      <point x="183" y="800"/>
      <point x="226" y="819"/>
      <point x="273" y="819" type="curve" smooth="yes"/>
      <point x="320" y="819"/>
      <point x="347" y="797"/>
      <point x="347" y="757" type="curve" smooth="yes"/>
      <point x="347" y="699"/>
      <point x="304" y="680"/>
    </contour>
    <contour>
      <point x="250" y="632" type="curve" smooth="yes"/>
      <point x="353" y="632"/>
      <point x="411" y="681"/>
      <point x="411" y="763" type="curve" smooth="yes"/>
      <point x="411" y="819"/>
      <point x="369" y="867"/>
      <point x="280" y="867" type="curve" smooth="yes"/>
      <point x="177" y="867"/>
      <point x="119" y="818"/>
      <point x="119" y="736" type="curve" smooth="yes"/>
      <point x="119" y="680"/>
      <point x="161" y="632"/>
    </contour>
  </outline>
</glyph>
<glyph name="quoteright" format="2">
  <advance width="316"/>
  <unicode hex="2019"/>
  <outline>
    <contour>
      <point x="177" y="463" type="line"/>
      <point x="290" y="505"/>
      <point x="369" y="590"/>
      <point x="369" y="699" type="curve" smooth="yes"/>
      <point x="369" y="753"/>
      <point x="343" y="785"/>
      <point x="292" y="785" type="curve" smooth="yes"/>
      <point x="233" y="785"/>
      <point x="203" y="755"/>
      <point x="203" y="706" type="curve" smooth="yes"/>
      <point x="203" y="662"/>
      <point x="231" y="640"/>
      <point x="273" y="640" type="curve" smooth="yes"/>
      <point x="309" y="640"/>
      <point x="336" y="656"/>
      <point x="347" y="684" type="curve"/>
      <point x="336" y="687"/>
      <point x="308" y="678"/>
      <point x="305" y="663" type="curve" smooth="yes"/>
      <point x="293" y="587"/>
      <point x="236" y="549"/>
      <point x="154" y="519" type="curve"/>
    </contour>
  </outline>
</glyph>
<glyph name="guilsinglleft" format="2">
  <advance width="486"/>
  <unicode hex="2039"/>
  <outline>
    <contour>
      <point x="207" y="247" type="line"/>
      <point x="496" y="505" type="line"/>
      <point x="413" y="505" type="line"/>
      <point x="145" y="315" type="line"/>
      <point x="137" y="264" type="line"/>
      <point x="342" y="65" type="line"/>
      <point x="421" y="65" type="line"/>
      <point x="218" y="314" type="line"/>
    </contour>
  </outline>
</glyph>
<glyph name="arrowleft" format="2">
  <advance width="1031"/>
  <unicode hex="2190"/>
  <outline>
    <contour>
      <point x="543" y="614" type="line"/>
      <point x="129" y="373" type="line"/>
      <point x="129" y="333" type="line"/>
      <point x="543" y="92" type="line"/>
      <point x="571" y="129" type="line"/>
      <point x="353" y="314" type="line"/>
      <point x="1011" y="314" type="line"/>
      <point x="1011" y="392" type="line"/>
      <point x="353" y="392" type="line"/>
      <point x="571" y="577" type="line"/>
    </contour>
  </outline>
</glyph>
<glyph name="uni25B9" format="2">
  <advance width="648"/>
  <unicode hex="25B9"/>
  <outline>
    <contour>
      <point x="223" y="535" type="line"/>
      <point x="223" y="20" type="line"/>
      <point x="618" y="277" type="line"/>
    </contour>
    <contour>
      <point x="281" y="450" type="line"/>
      <point x="264" y="443" type="line"/>
      <point x="534" y="272" type="line"/>
      <point x="534" y="283" type="line"/>
      <point x="264" y="112" type="line"/>
      <point x="281" y="105" type="line"/>
    </contour>
  </outline>
</glyph>
<glyph name="uni27F7" format="2">
  <advance width="1367"/>
  <unicode hex="27F7"/>
  <outline>
    <contour>
      <point x="1138" y="318" type="line"/>
      <point x="1012" y="171" type="line"/>
      <point x="1033" y="143" type="line"/>
      <point x="1350" y="335" type="line"/>
      <point x="1350" y="371" type="line"/>
      <point x="1033" y="563" type="line"/>
      <point x="1012" y="535" type="line"/>
      <point x="1138" y="388" type="line"/>
      <point x="342" y="388" type="line"/>
      <point x="468" y="535" type="line"/>
      <point x="447" y="563" type="line"/>
      <point x="129" y="371" type="line"/>
      <point x="129" y="335" type="line"/>
      <point x="447" y="143" type="line"/>
      <point x="468" y="171" type="line"/>
      <point x="342" y="318" type="line"/>
    </contour>
  </outline>
</glyph>
<glyph name="zero.den" format="2">
  <advance width="598"/>
  <unicode hex="E402"/>
  <outline>
    <contour>
      <point x="445" y="252" type="curve"/>
      <point x="445" y="125"/>
      <point x="401" y="44"/>
      <point x="320" y="44" type="curve"/>
      <point x="257" y="44"/>
      <point x="217" y="82"/>
      <point x="217" y="167" type="curve"/>
      <point x="217" y="290"/>
      <point x="262" y="371"/>
      <point x="344" y="371" type="curve"/>
      <point x="406" y="371"/>
      <point x="445" y="333"/>
    </contour>
    <contour>
      <point x="540" y="226" type="curve" smooth="yes"/>
      <point x="540" y="348"/>
      <point x="460" y="421"/>
      <point x="342" y="421" type="curve"/>
      <point x="188" y="421"/>
      <point x="123" y="301"/>
      <point x="123" y="188" type="curve" smooth="yes"/>
      <point x="123" y="67"/>
      <point x="203" y="-6"/>
      <point x="323" y="-6" type="curve"/>
      <point x="476" y="-6"/>
      <point x="540" y="114"/>
    </contour>
  </outline>
</glyph>
<glyph name="one.den" format="2">
  <advance width="553"/>
  <unicode hex="E403"/>
  <guideline x="348" y="94" angle="81" identifier="p3p7Ik8sKc"/>
  <outline>
    <contour>
      <point x="339" y="69" type="curve" smooth="yes"/>
      <point x="394" y="415" type="line"/>
      <point x="331" y="415" type="line"/>
      <point x="296" y="368"/>
      <point x="256" y="351"/>
      <point x="147" y="350" type="curve"/>
      <point x="139" y="293" type="line"/>
      <point x="141" y="293"/>
      <point x="143" y="293"/>
      <point x="145" y="293" type="curve" smooth="yes"/>
      <point x="236" y="293"/>
      <point x="288" y="319"/>
      <point x="309" y="360" type="curve"/>
      <point x="306" y="363"/>
      <point x="302" y="362"/>
      <point x="296" y="360" type="curve"/>
      <point x="250" y="69" type="line" smooth="yes"/>
      <point x="247" y="47"/>
      <point x="208" y="43"/>
      <point x="156" y="43" type="curve" smooth="yes"/>
      <point x="110" y="43" type="line"/>
      <point x="103" y="0" type="line"/>
      <point x="455" y="0" type="line"/>
      <point x="462" y="43" type="line"/>
      <point x="428" y="43" type="line" smooth="yes"/>
      <point x="369" y="43"/>
      <point x="336" y="50"/>
    </contour>
  </outline>
</glyph>
<glyph name="five.den" format="2">
  <advance width="580"/>
  <unicode hex="E407"/>
  <guideline x="174" y="285" angle="81" identifier="HhjTiBgkeF"/>
  <outline>
    <contour>
      <point x="309" y="-6" type="curve" smooth="yes"/>
      <point x="202.0" y="-6"/>
      <point x="141" y="32"/>
      <point x="107" y="94" type="curve"/>
      <point x="159" y="126" type="line"/>
      <point x="190" y="76"/>
      <point x="239" y="43"/>
      <point x="308" y="43" type="curve" smooth="yes"/>
      <point x="382" y="43"/>
      <point x="414" y="80"/>
      <point x="414" y="138" type="curve" smooth="yes"/>
      <point x="414.0" y="193.0"/>
      <point x="382" y="228"/>
      <point x="316" y="228" type="curve" smooth="yes"/>
      <point x="268.0" y="228.0"/>
      <point x="238" y="208"/>
      <point x="215" y="185" type="curve"/>
      <point x="165" y="185" type="line"/>
      <point x="202" y="415" type="line"/>
      <point x="512" y="415" type="line"/>
      <point x="491" y="355" type="line"/>
      <point x="228" y="355" type="line"/>
      <point x="256" y="401" type="line"/>
      <point x="224" y="213" type="line"/>
      <point x="216.0" y="203.0"/>
      <point x="209.0" y="211.0"/>
      <point x="205" y="213" type="curve"/>
      <point x="233" y="248"/>
      <point x="279" y="276"/>
      <point x="347" y="276" type="curve" smooth="yes"/>
      <point x="454.0" y="276.0"/>
      <point x="509.0" y="225"/>
      <point x="509" y="148" type="curve" smooth="yes"/>
      <point x="509.0" y="54.0"/>
      <point x="430" y="-6"/>
    </contour>
  </outline>
</glyph>
<glyph name="seven.den" format="2">
  <advance width="545"/>
  <unicode hex="E409"/>
  <outline>
    <contour>
      <point x="300" y="354" type="line" smooth="yes"/>
      <point x="233" y="354"/>
      <point x="210" y="349"/>
      <point x="203" y="325" type="curve" smooth="yes"/>
      <point x="187" y="268" type="line"/>
      <point x="132" y="268" type="line"/>
      <point x="158" y="415" type="line"/>
      <point x="541" y="415" type="line"/>
      <point x="532" y="357" type="line"/>
      <point x="399" y="268"/>
      <point x="346" y="210"/>
      <point x="321" y="0" type="curve"/>
      <point x="226" y="0" type="line"/>
      <point x="252" y="187"/>
      <point x="394" y="327"/>
      <point x="497" y="372" type="curve"/>
      <point x="495" y="354" type="line"/>
    </contour>
  </outline>
</glyph>
<glyph name="acute.pl" format="2">
  <advance width="613"/>
  <anchor x="210" y="565" name="_top"/>
  <outline>
    <contour>
      <point x="246" y="812" type="curve" smooth="yes"/>
      <point x="200" y="686" type="line"/>
      <point x="196" y="661" type="line"/>
      <point x="230" y="661" type="line"/>
      <point x="333" y="754" type="line" smooth="yes"/>
      <point x="361" y="779"/>
      <point x="374" y="797"/>
      <point x="374" y="820" type="curve" smooth="yes"/>
      <point x="374.0" y="847"/>
      <point x="354" y="869"/>
      <point x="312" y="869" type="curve" smooth="yes"/>
      <point x="273" y="869"/>
      <point x="258" y="846"/>
    </contour>
  </outline>
</glyph>
<glyph name="acute.uc" format="2">
  <advance width="613"/>
  <anchor x="159" y="740" name="_top"/>
  <outline>
    <contour>
      <point x="256" y="926" type="curve" smooth="yes"/>
      <point x="145" y="818" type="line"/>
      <point x="141" y="793" type="line"/>
      <point x="182" y="793" type="line"/>
      <point x="326" y="857" type="line" smooth="yes"/>
      <point x="370" y="877"/>
      <point x="393" y="891"/>
      <point x="393" y="922" type="curve" smooth="yes"/>
      <point x="393.0" y="940.0"/>
      <point x="378" y="967.0"/>
      <point x="337" y="967" type="curve" smooth="yes"/>
      <point x="303" y="967"/>
      <point x="282" y="951"/>
    </contour>
  </outline>
</glyph>
<glyph name="breve_grave.uc" format="2">
  <advance width="407"/>
  <anchor x="320" y="740" name="_top"/>
  <outline>
    <contour>
      <point x="299" y="1096" type="curve" smooth="yes"/>
      <point x="408" y="997" type="line"/>
      <point x="410" y="972" type="line"/>
      <point x="370" y="972" type="line"/>
      <point x="210" y="1037" type="line" smooth="yes"/>
      <point x="165" y="1055"/>
      <point x="143" y="1068"/>
      <point x="143" y="1099" type="curve" smooth="yes"/>
      <point x="143" y="1121"/>
      <point x="160" y="1146"/>
      <point x="199" y="1146" type="curve" smooth="yes"/>
      <point x="238" y="1146"/>
      <point x="264" y="1128"/>
    </contour>
    <contour>
      <point x="354" y="796" type="curve" smooth="yes"/>
      <point x="186" y="796"/>
      <point x="142" y="874"/>
      <point x="152" y="962" type="curve"/>
      <point x="222" y="962" type="line"/>
      <point x="224" y="901"/>
      <point x="258" y="869"/>
      <point x="356" y="869" type="curve" smooth="yes"/>
      <point x="438" y="869"/>
      <point x="477" y="899"/>
      <point x="487" y="962" type="curve"/>
      <point x="558" y="962" type="line"/>
      <point x="553" y="857"/>
      <point x="483" y="796"/>
    </contour>
  </outline>
</glyph>
<glyph name="brokenbar.uc" format="2">
  <advance width="430"/>
  <outline>
    <contour>
      <point x="230" y="760" type="line"/>
      <point x="230" y="444" type="line"/>
      <point x="310" y="444" type="line"/>
      <point x="310" y="760" type="line"/>
    </contour>
    <contour>
      <point x="230" y="259" type="line"/>
      <point x="230" y="-60" type="line"/>
      <point x="310" y="-60" type="line"/>
      <point x="310" y="259" type="line"/>
    </contour>
  </outline>
</glyph>
<glyph name="circumflex_acute" format="2">
  <advance width="646"/>
  <guideline x="284" y="669" angle="81" identifier="P6xDjX47iB"/>
  <anchor x="268" y="565" name="_top"/>
  <outline>
    <contour>
      <point x="575" y="944" type="curve" smooth="yes"/>
      <point x="506" y="825" type="line"/>
      <point x="503" y="801" type="line"/>
      <point x="540" y="801" type="line"/>
      <point x="670" y="892" type="line" smooth="yes"/>
      <point x="698" y="911"/>
      <point x="712" y="931"/>
      <point x="712" y="953" type="curve" smooth="yes"/>
      <point x="712" y="974"/>
      <point x="694" y="1002"/>
      <point x="650" y="1002" type="curve" smooth="yes"/>
      <point x="612" y="1002"/>
      <point x="593" y="976"/>
    </contour>
    <contour>
      <point x="340" y="844" type="line"/>
      <point x="497" y="681" type="line"/>
      <point x="493" y="656" type="line"/>
      <point x="448" y="656" type="line"/>
      <point x="249" y="802" type="line"/>
      <point x="325" y="784" type="line"/>
      <point x="150" y="656" type="line"/>
      <point x="107" y="656" type="line"/>
      <point x="111" y="681" type="line"/>
      <point x="261" y="844" type="line"/>
    </contour>
  </outline>
</glyph>
<glyph name="circumflex_hook.uc" format="2">
  <advance width="646"/>
  <anchor x="311" y="740" name="_top"/>
  <outline>
    <contour>
      <point x="462" y="1041" type="line"/>
      <point x="473" y="1102"/>
      <point x="542" y="1143"/>
      <point x="647" y="1143" type="curve" smooth="yes"/>
      <point x="763" y="1143"/>
      <point x="810" y="1101"/>
      <point x="810" y="1044" type="curve" smooth="yes"/>
      <point x="810" y="969"/>
      <point x="731" y="944"/>
      <point x="614" y="942" type="curve"/>
      <point x="669" y="979" type="line"/>
      <point x="654" y="896" type="line"/>
      <point x="577" y="896" type="line"/>
      <point x="590" y="980" type="line"/>
      <point x="678" y="981"/>
      <point x="717" y="997"/>
      <point x="717" y="1035" type="curve" smooth="yes"/>
      <point x="717" y="1059"/>
      <point x="702" y="1080"/>
      <point x="641" y="1080" type="curve" smooth="yes"/>
      <point x="585.0" y="1080.0"/>
      <point x="560" y="1066"/>
      <point x="552" y="1041" type="curve"/>
    </contour>
    <contour>
      <point x="377" y="957" type="line"/>
      <point x="541" y="807" type="line"/>
      <point x="536" y="782" type="line"/>
      <point x="486" y="782" type="line"/>
      <point x="277" y="916" type="line"/>
      <point x="387" y="912" type="line"/>
      <point x="168" y="782" type="line"/>
      <point x="124" y="782" type="line"/>
      <point x="128" y="807" type="line"/>
      <point x="290" y="957" type="line"/>
    </contour>
  </outline>
</glyph>
<glyph name="colonmonetary.proportional" format="2">
  <advance width="836"/>
  <outline>
    <contour>
      <point x="458" y="10" type="curve"/>
      <point x="667" y="10"/>
      <point x="755" y="108"/>
      <point x="808" y="240" type="curve"/>
      <point x="744" y="263" type="line"/>
      <point x="698" y="162"/>
      <point x="652" y="72"/>
      <point x="468" y="72" type="curve"/>
      <point x="272" y="72.0"/>
      <point x="200.0" y="181"/>
      <point x="200" y="336" type="curve" smooth="yes"/>
      <point x="200" y="500"/>
      <point x="285" y="639"/>
      <point x="519" y="639" type="curve" smooth="yes"/>
      <point x="643.0" y="639.0"/>
      <point x="736" y="608"/>
      <point x="804" y="569" type="curve"/>
      <point x="805" y="599"/>
      <point x="776" y="632"/>
      <point x="756" y="639" type="curve"/>
      <point x="728" y="471" type="line"/>
      <point x="818" y="471" type="line"/>
      <point x="843" y="621" type="line"/>
      <point x="795" y="656"/>
      <point x="673" y="700"/>
      <point x="517" y="700" type="curve" smooth="yes"/>
      <point x="254.0" y="700.0"/>
      <point x="109" y="541"/>
      <point x="109" y="335" type="curve" smooth="yes"/>
      <point x="109.0" y="137"/>
      <point x="223" y="10.0"/>
    </contour>
    <contour>
      <point x="530" y="790" type="line"/>
      <point x="480" y="673" type="line"/>
      <point x="479" y="656" type="line"/>
      <point x="238" y="93" type="line"/>
      <point x="234" y="97" type="line"/>
      <point x="141" y="-120" type="line"/>
      <point x="212" y="-120" type="line"/>
      <point x="286" y="53" type="line"/>
      <point x="287" y="64" type="line"/>
      <point x="542" y="662" type="line"/>
      <point x="555" y="683" type="line"/>
      <point x="601" y="790" type="line"/>
    </contour>
    <contour>
      <point x="707" y="790" type="line"/>
      <point x="657" y="673" type="line"/>
      <point x="656" y="656" type="line"/>
      <point x="398" y="53" type="line"/>
      <point x="392" y="53" type="line"/>
      <point x="318" y="-120" type="line"/>
      <point x="389" y="-120" type="line"/>
      <point x="456" y="37" type="line"/>
      <point x="459" y="52" type="line"/>
      <point x="711" y="644" type="line"/>
      <point x="722" y="655" type="line"/>
      <point x="778" y="790" type="line"/>
    </contour>
  </outline>
</glyph>
<glyph name="dblgrave" format="2">
  <advance width="472"/>
  <anchor x="445" y="565" name="_top"/>
  <outline>
    <contour>
      <point x="503" y="813" type="line" smooth="yes"/>
      <point x="484" y="848"/>
      <point x="466" y="869"/>
      <point x="426" y="869" type="curve" smooth="yes"/>
      <point x="392" y="869"/>
      <point x="373" y="850"/>
      <point x="373" y="826" type="curve" smooth="yes"/>
      <point x="373.0" y="803.0"/>
      <point x="387" y="790"/>
      <point x="433" y="751" type="curve" smooth="yes"/>
      <point x="543" y="661" type="line"/>
      <point x="575" y="661" type="line"/>
      <point x="572" y="685" type="line"/>
    </contour>
    <contour>
      <point x="263" y="813" type="line" smooth="yes"/>
      <point x="244" y="848"/>
      <point x="226" y="869"/>
      <point x="186" y="869" type="curve" smooth="yes"/>
      <point x="152" y="869"/>
      <point x="133" y="850"/>
      <point x="133" y="826" type="curve" smooth="yes"/>
      <point x="133.0" y="803.0"/>
      <point x="147" y="790"/>
      <point x="193" y="751" type="curve" smooth="yes"/>
      <point x="303" y="661" type="line"/>
      <point x="335" y="661" type="line"/>
      <point x="332" y="685" type="line"/>
    </contour>
  </outline>
</glyph>
<glyph name="dong.proportional" format="2">
  <advance width="831"/>
  <outline>
    <contour>
      <point x="329" y="-12" type="curve" smooth="yes"/>
      <point x="454" y="-12"/>
      <point x="540" y="70"/>
      <point x="607" y="199" type="curve"/>
      <point x="591" y="237" type="line"/>
      <point x="513" y="111"/>
      <point x="444" y="52"/>
      <point x="347" y="52" type="curve" smooth="yes"/>
      <point x="255" y="52"/>
      <point x="204" y="109"/>
      <point x="203" y="207" type="curve" smooth="yes"/>
      <point x="201" y="367"/>
      <point x="286" y="511"/>
      <point x="438" y="511" type="curve" smooth="yes"/>
      <point x="527" y="511"/>
      <point x="591" y="464"/>
      <point x="619" y="345" type="curve"/>
      <point x="653" y="377" type="line"/>
      <point x="630" y="509"/>
      <point x="553" y="575"/>
      <point x="422" y="575" type="curve" smooth="yes"/>
      <point x="193" y="575"/>
      <point x="105" y="358"/>
      <point x="105" y="207" type="curve" smooth="yes"/>
      <point x="105" y="76"/>
      <point x="187" y="-12"/>
    </contour>
    <contour>
      <point x="670" y="0" type="curve" smooth="yes"/>
      <point x="708" y="0"/>
      <point x="751" y="0"/>
      <point x="783" y="0" type="curve"/>
      <point x="791" y="50" type="line"/>
      <point x="760" y="50"/>
      <point x="736" y="50"/>
      <point x="694" y="50" type="curve" smooth="yes"/>
      <point x="667" y="50"/>
      <point x="655" y="58"/>
      <point x="655" y="83" type="curve" smooth="yes"/>
      <point x="655" y="102"/>
      <point x="663" y="151"/>
      <point x="679" y="248" type="curve" smooth="yes"/>
      <point x="768" y="780" type="line"/>
      <point x="681" y="780" type="line"/>
      <point x="575" y="160" type="line"/>
      <point x="568" y="126"/>
      <point x="563" y="91"/>
      <point x="563" y="73" type="curve" smooth="yes"/>
      <point x="563" y="20"/>
      <point x="594" y="0"/>
    </contour>
    <contour>
      <point x="108" y="-115" type="line"/>
      <point x="100" y="-171" type="line"/>
      <point x="751" y="-171" type="line"/>
      <point x="761" y="-115" type="line"/>
    </contour>
    <contour>
      <point x="374" y="706" type="line"/>
      <point x="366" y="653" type="line"/>
      <point x="851" y="653" type="line"/>
      <point x="859" y="706" type="line"/>
    </contour>
  </outline>
</glyph>
<glyph name="five.lintab" format="2">
  <advance width="680"/>
  <guideline x="186" y="449" angle="81" identifier="rIB80Hu6LG"/>
  <outline>
    <contour>
      <point x="358" y="-10" type="curve" smooth="yes"/>
      <point x="223.0" y="-10"/>
      <point x="120" y="56"/>
      <point x="87" y="146" type="curve"/>
      <point x="160" y="183" type="line"/>
      <point x="198" y="106"/>
      <point x="259" y="54"/>
      <point x="366" y="54" type="curve" smooth="yes"/>
      <point x="492.0" y="54.0"/>
      <point x="562" y="125"/>
      <point x="562" y="262" type="curve" smooth="yes"/>
      <point x="562.0" y="366.0"/>
      <point x="500" y="409"/>
      <point x="411" y="409" type="curve" smooth="yes"/>
      <point x="335.0" y="409.0"/>
      <point x="278" y="373"/>
      <point x="233" y="313" type="curve"/>
      <point x="165" y="313" type="line"/>
      <point x="227" y="710" type="line"/>
      <point x="668" y="710" type="line"/>
      <point x="641" y="636" type="line"/>
      <point x="263" y="636" type="line"/>
      <point x="295" y="691" type="line"/>
      <point x="239" y="348" type="line"/>
      <point x="235" y="347"/>
      <point x="225" y="347"/>
      <point x="211" y="345" type="curve"/>
      <point x="269" y="427"/>
      <point x="342" y="467"/>
      <point x="442" y="467" type="curve" smooth="yes"/>
      <point x="583" y="467"/>
      <point x="656" y="378"/>
      <point x="656" y="268" type="curve" smooth="yes"/>
      <point x="656" y="83"/>
      <point x="532" y="-10"/>
    </contour>
  </outline>
</glyph>
<glyph name="five.midprop" format="2">
  <advance width="706"/>
  <outline>
    <contour>
      <point x="380" y="-73" type="curve" smooth="yes"/>
      <point x="576" y="-73"/>
      <point x="678" y="40"/>
      <point x="678" y="182" type="curve" smooth="yes"/>
      <point x="678.0" y="311"/>
      <point x="604" y="406.0"/>
      <point x="428" y="406" type="curve"/>
      <point x="329" y="406"/>
      <point x="256" y="369"/>
      <point x="210" y="304" type="curve"/>
      <point x="229" y="295" type="line"/>
      <point x="287" y="628" type="line"/>
      <point x="253" y="579" type="line"/>
      <point x="645" y="579" type="line"/>
      <point x="670" y="648" type="line"/>
      <point x="221" y="648" type="line"/>
      <point x="156" y="265" type="line"/>
      <point x="224" y="265" type="line"/>
      <point x="267" y="322"/>
      <point x="330" y="351"/>
      <point x="407" y="351" type="curve"/>
      <point x="528" y="351.0"/>
      <point x="579.0" y="287"/>
      <point x="579" y="184" type="curve" smooth="yes"/>
      <point x="579.0" y="77.0"/>
      <point x="522" y="-9"/>
      <point x="378" y="-9" type="curve" smooth="yes"/>
      <point x="228" y="-9"/>
      <point x="176" y="66"/>
      <point x="130" y="135" type="curve"/>
      <point x="64" y="90" type="line"/>
      <point x="112" y="1"/>
      <point x="203" y="-73"/>
    </contour>
  </outline>
</glyph>
<glyph name="five.oldtab" format="2">
  <advance width="680"/>
  <outline>
    <contour>
      <point x="342" y="-131" type="curve" smooth="yes"/>
      <point x="538.0" y="-131.0"/>
      <point x="634" y="-14"/>
      <point x="634" y="132" type="curve" smooth="yes"/>
      <point x="634" y="261"/>
      <point x="563" y="356.0"/>
      <point x="397" y="356" type="curve" smooth="yes"/>
      <point x="308.0" y="356.0"/>
      <point x="241" y="319"/>
      <point x="195" y="254" type="curve"/>
      <point x="214" y="245" type="line"/>
      <point x="272" y="578" type="line"/>
      <point x="238" y="529" type="line"/>
      <point x="630" y="529" type="line"/>
      <point x="655" y="598" type="line"/>
      <point x="206" y="598" type="line"/>
      <point x="141" y="215" type="line"/>
      <point x="209" y="215" type="line"/>
      <point x="252" y="272"/>
      <point x="309" y="301"/>
      <point x="376" y="301" type="curve" smooth="yes"/>
      <point x="487.0" y="301.0"/>
      <point x="535" y="237"/>
      <point x="535" y="134" type="curve" smooth="yes"/>
      <point x="535.0" y="23.0"/>
      <point x="484" y="-67"/>
      <point x="340" y="-67" type="curve" smooth="yes"/>
      <point x="210.0" y="-67"/>
      <point x="161" y="8"/>
      <point x="115" y="77" type="curve"/>
      <point x="49" y="32" type="line"/>
      <point x="97" y="-57"/>
      <point x="185" y="-131"/>
    </contour>
  </outline>
</glyph>
<glyph name="four.linprop" format="2">
  <advance width="756"/>
  <guideline x="609" y="337" angle="81" identifier="tG5dAXxFwO"/>
  <outline>
    <contour>
      <point x="571" y="710" type="line"/>
      <point x="574" y="698" type="line"/>
      <point x="476" y="92" type="line" smooth="yes"/>
      <point x="471" y="63"/>
      <point x="427" y="62"/>
      <point x="367" y="62" type="curve" smooth="yes"/>
      <point x="321" y="62" type="line"/>
      <point x="311" y="0" type="line"/>
      <point x="698" y="0" type="line"/>
      <point x="708" y="62" type="line"/>
      <point x="667" y="62" type="line" smooth="yes"/>
      <point x="608" y="62"/>
      <point x="564" y="67"/>
      <point x="568" y="92" type="curve" smooth="yes"/>
      <point x="668" y="710" type="line"/>
    </contour>
    <contour>
      <point x="80" y="213" type="line"/>
      <point x="745" y="213" type="line"/>
      <point x="755" y="278" type="line"/>
      <point x="125" y="278" type="line"/>
      <point x="136" y="241" type="line"/>
      <point x="596" y="685" type="line"/>
      <point x="598" y="710" type="line"/>
      <point x="530" y="710" type="line"/>
      <point x="92" y="288" type="line"/>
    </contour>
  </outline>
</glyph>
<glyph name="four.lintab" format="2">
  <advance width="680"/>
  <outline>
    <contour>
      <point x="60" y="213" type="line"/>
      <point x="680" y="213" type="line"/>
      <point x="690" y="278" type="line"/>
      <point x="105" y="278" type="line"/>
      <point x="116" y="241" type="line"/>
      <point x="546" y="685" type="line"/>
      <point x="548" y="710" type="line"/>
      <point x="480" y="710" type="line"/>
      <point x="72" y="288" type="line"/>
    </contour>
    <contour>
      <point x="518" y="92" type="curve" smooth="yes"/>
      <point x="618" y="710" type="line"/>
      <point x="521" y="710" type="line"/>
      <point x="524" y="698" type="line"/>
      <point x="426" y="92" type="line" smooth="yes"/>
      <point x="421" y="63"/>
      <point x="377" y="62"/>
      <point x="317" y="62" type="curve" smooth="yes"/>
      <point x="289" y="62" type="line"/>
      <point x="279" y="0" type="line"/>
      <point x="630" y="0" type="line"/>
      <point x="640" y="62" type="line"/>
      <point x="617" y="62" type="line" smooth="yes"/>
      <point x="558" y="62"/>
      <point x="514" y="67"/>
    </contour>
  </outline>
</glyph>
<glyph name="grave.uc" format="2">
  <advance width="293"/>
  <anchor x="371" y="740" name="_top"/>
  <outline>
    <contour>
      <point x="379" y="793" type="line"/>
      <point x="220" y="857" type="line" smooth="yes"/>
      <point x="173" y="876"/>
      <point x="147" y="892"/>
      <point x="147" y="922" type="curve" smooth="yes"/>
      <point x="147" y="944"/>
      <point x="165" y="967"/>
      <point x="203" y="967" type="curve" smooth="yes"/>
      <point x="241" y="967"/>
      <point x="265" y="947"/>
      <point x="300" y="917" type="curve" smooth="yes"/>
      <point x="416" y="818" type="line"/>
      <point x="419" y="793" type="line"/>
    </contour>
  </outline>
</glyph>
<glyph name="guarani.proportional" format="2">
  <advance width="860"/>
  <guideline x="779" y="278" angle="81" identifier="zdaYII7DmP"/>
  <outline>
    <contour>
      <point x="503" y="790" type="line"/>
      <point x="485" y="675" type="line"/>
      <point x="494" y="665" type="line"/>
      <point x="391" y="46" type="line"/>
      <point x="383" y="35" type="line"/>
      <point x="359" y="-120" type="line"/>
      <point x="441" y="-120" type="line"/>
      <point x="465" y="36" type="line"/>
      <point x="458" y="46" type="line"/>
      <point x="559" y="661" type="line"/>
      <point x="568" y="679" type="line"/>
      <point x="585" y="790" type="line"/>
    </contour>
    <contour>
      <point x="689" y="259" type="curve" smooth="yes"/>
      <point x="665" y="108" type="line"/>
      <point x="639" y="95"/>
      <point x="586" y="72"/>
      <point x="485" y="72" type="curve"/>
      <point x="277" y="72.0"/>
      <point x="210" y="177"/>
      <point x="210" y="344" type="curve" smooth="yes"/>
      <point x="210.0" y="504.0"/>
      <point x="290" y="638"/>
      <point x="518" y="638" type="curve" smooth="yes"/>
      <point x="627" y="638"/>
      <point x="716" y="618"/>
      <point x="779" y="580" type="curve"/>
      <point x="776" y="601"/>
      <point x="759" y="639"/>
      <point x="732" y="655" type="curve"/>
      <point x="709" y="516" type="line"/>
      <point x="799" y="516" type="line"/>
      <point x="821" y="645" type="line"/>
      <point x="756" y="672"/>
      <point x="663" y="700"/>
      <point x="534" y="700" type="curve" smooth="yes"/>
      <point x="247.0" y="700.0"/>
      <point x="112" y="545"/>
      <point x="112" y="341" type="curve" smooth="yes"/>
      <point x="112" y="143.0"/>
      <point x="220" y="10.0"/>
      <point x="499" y="10" type="curve" smooth="yes"/>
      <point x="609" y="10"/>
      <point x="709" y="51"/>
      <point x="747" y="75" type="curve"/>
      <point x="776" y="259" type="line" smooth="yes"/>
      <point x="781" y="288"/>
      <point x="806" y="295"/>
      <point x="845" y="295" type="curve" smooth="yes"/>
      <point x="852" y="295" type="line"/>
      <point x="862" y="357" type="line"/>
      <point x="634" y="357" type="line"/>
      <point x="624" y="295" type="line"/>
      <point x="637" y="295" type="line" smooth="yes"/>
      <point x="679" y="295"/>
      <point x="693" y="280"/>
    </contour>
  </outline>
</glyph>
<glyph name="heartsuitwhite" format="2">
  <advance width="965"/>
  <outline>
    <contour>
      <point x="237" y="529" type="curve" smooth="yes"/>
      <point x="237" y="596"/>
      <point x="282" y="643"/>
      <point x="362" y="643" type="curve" smooth="yes"/>
      <point x="459" y="643"/>
      <point x="527" y="542"/>
      <point x="561" y="462" type="curve"/>
      <point x="571" y="462" type="line"/>
      <point x="605" y="542"/>
      <point x="672" y="643"/>
      <point x="769" y="643" type="curve" smooth="yes"/>
      <point x="849" y="643"/>
      <point x="894" y="596"/>
      <point x="894" y="529" type="curve" smooth="yes"/>
      <point x="894" y="447"/>
      <point x="858" y="391"/>
      <point x="785" y="312" type="curve" smooth="yes"/>
      <point x="570" y="81" type="line"/>
      <point x="561" y="81" type="line"/>
      <point x="347" y="312" type="line" smooth="yes"/>
      <point x="273" y="391"/>
      <point x="237" y="447"/>
    </contour>
    <contour>
      <point x="160" y="525" type="curve" smooth="yes"/>
      <point x="160" y="434"/>
      <point x="200" y="373"/>
      <point x="292" y="273" type="curve" smooth="yes"/>
      <point x="553" y="-10" type="line"/>
      <point x="578" y="-10" type="line"/>
      <point x="839" y="273" type="line" smooth="yes"/>
      <point x="931" y="373"/>
      <point x="971" y="434"/>
      <point x="971" y="525" type="curve" smooth="yes"/>
      <point x="971" y="632"/>
      <point x="901" y="710"/>
      <point x="778" y="710" type="curve" smooth="yes"/>
      <point x="669" y="710"/>
      <point x="606" y="657"/>
      <point x="566" y="569" type="curve"/>
      <point x="525" y="657"/>
      <point x="461" y="710"/>
      <point x="353" y="710" type="curve" smooth="yes"/>
      <point x="230" y="710"/>
      <point x="160" y="632"/>
    </contour>
  </outline>
</glyph>
<glyph name="hungarumlaut.uc" format="2">
  <advance width="613"/>
  <anchor x="281" y="740" name="_top"/>
  <outline>
    <contour>
      <point x="213" y="926" type="curve" smooth="yes"/>
      <point x="153" y="818" type="line"/>
      <point x="149" y="793" type="line"/>
      <point x="189" y="793" type="line"/>
      <point x="290" y="861" type="line" smooth="yes"/>
      <point x="326" y="885"/>
      <point x="342" y="902"/>
      <point x="342" y="928" type="curve" smooth="yes"/>
      <point x="342" y="950"/>
      <point x="322.0" y="974.0"/>
      <point x="282" y="974" type="curve" smooth="yes"/>
      <point x="245" y="974"/>
      <point x="228" y="954"/>
    </contour>
    <contour>
      <point x="448" y="926" type="curve" smooth="yes"/>
      <point x="388" y="818" type="line"/>
      <point x="384" y="793" type="line"/>
      <point x="424" y="793" type="line"/>
      <point x="525" y="861" type="line" smooth="yes"/>
      <point x="561" y="885"/>
      <point x="577" y="902"/>
      <point x="577" y="928" type="curve" smooth="yes"/>
      <point x="577" y="950"/>
      <point x="557.0" y="974.0"/>
      <point x="517" y="974" type="curve" smooth="yes"/>
      <point x="480" y="974"/>
      <point x="463" y="954"/>
    </contour>
  </outline>
</glyph>
<glyph name="liraTurkish.proportional" format="2">
  <advance width="783"/>
  <guideline x="642" y="311" angle="81" identifier="uCg7GVpca5"/>
  <outline>
    <contour>
      <point x="94" y="235" type="line"/>
      <point x="84" y="175" type="line"/>
      <point x="651" y="371" type="line"/>
      <point x="661" y="431" type="line"/>
    </contour>
    <contour>
      <point x="124" y="427" type="line"/>
      <point x="114" y="367" type="line"/>
      <point x="682" y="563" type="line"/>
      <point x="692" y="623" type="line"/>
    </contour>
    <contour>
      <point x="459" y="62" type="curve" smooth="yes"/>
      <point x="286" y="62" type="line"/>
      <point x="377" y="638" type="line" smooth="yes"/>
      <point x="378" y="645"/>
      <point x="421" y="648"/>
      <point x="472" y="648" type="curve" smooth="yes"/>
      <point x="481" y="648" type="line"/>
      <point x="492" y="710" type="line"/>
      <point x="179" y="710" type="line"/>
      <point x="170" y="648" type="line"/>
      <point x="203" y="648" type="line" smooth="yes"/>
      <point x="253.0" y="648.0"/>
      <point x="286" y="640"/>
      <point x="282" y="612" type="curve" smooth="yes"/>
      <point x="201" y="98" type="line" smooth="yes"/>
      <point x="196" y="69"/>
      <point x="159.0" y="62.0"/>
      <point x="110" y="62" type="curve" smooth="yes"/>
      <point x="74" y="62" type="line"/>
      <point x="64" y="0" type="line"/>
      <point x="433" y="0" type="line" smooth="yes"/>
      <point x="671.0" y="0.0"/>
      <point x="739" y="82"/>
      <point x="772" y="258" type="curve"/>
      <point x="695" y="270" type="line"/>
      <point x="670" y="134"/>
      <point x="635.0" y="62.0"/>
    </contour>
  </outline>
</glyph>
<glyph name="one.midprop" format="2">
  <advance width="640"/>
  <guideline x="411" y="481" angle="81" identifier="l6xP5PSsu3"/>
  <outline>
    <contour>
      <point x="421" y="98" type="curve" smooth="yes"/>
      <point x="509" y="650" type="line"/>
      <point x="446" y="650" type="line"/>
      <point x="395" y="569"/>
      <point x="315" y="547"/>
      <point x="175" y="544" type="curve"/>
      <point x="163" y="472" type="line"/>
      <point x="294" y="472"/>
      <point x="405" y="512"/>
      <point x="436" y="596" type="curve"/>
      <point x="429" y="599"/>
      <point x="421" y="582"/>
      <point x="410" y="582" type="curve"/>
      <point x="333" y="98" type="line" smooth="yes"/>
      <point x="328" y="69"/>
      <point x="291" y="62"/>
      <point x="241" y="62" type="curve" smooth="yes"/>
      <point x="122" y="62" type="line"/>
      <point x="112" y="0" type="line"/>
      <point x="593" y="0" type="line"/>
      <point x="603" y="62" type="line"/>
      <point x="500" y="62" type="line" smooth="yes"/>
      <point x="451" y="62"/>
      <point x="416" y="69"/>
    </contour>
  </outline>
</glyph>
<glyph name="one.oldtab" format="2">
  <advance width="680"/>
  <guideline x="176" y="465" angle="81" identifier="iXpw6rHYUk"/>
  <outline>
    <contour>
      <point x="422" y="98" type="curve" smooth="yes"/>
      <point x="506" y="598" type="line"/>
      <point x="443" y="598" type="line"/>
      <point x="392" y="517"/>
      <point x="312" y="495"/>
      <point x="164" y="492" type="curve"/>
      <point x="153" y="420" type="line"/>
      <point x="291" y="420"/>
      <point x="402" y="460"/>
      <point x="433" y="544" type="curve"/>
      <point x="426" y="547"/>
      <point x="418" y="530"/>
      <point x="407" y="530" type="curve"/>
      <point x="334" y="98" type="line" smooth="yes"/>
      <point x="329" y="69"/>
      <point x="292" y="62"/>
      <point x="242" y="62" type="curve" smooth="yes"/>
      <point x="117" y="62" type="line"/>
      <point x="107" y="0" type="line"/>
      <point x="594" y="0" type="line"/>
      <point x="604" y="62" type="line"/>
      <point x="501" y="62" type="line" smooth="yes"/>
      <point x="452" y="62"/>
      <point x="417" y="69"/>
    </contour>
  </outline>
</glyph>
<glyph name="ringhalfleft" format="2">
  <advance width="613"/>
  <anchor x="209" y="566" name="_top"/>
  <outline>
    <contour>
      <point x="254" y="632" type="curve"/>
      <point x="254" y="680" type="line"/>
      <point x="202" y="680"/>
      <point x="172" y="702"/>
      <point x="172" y="749" type="curve" smooth="yes"/>
      <point x="172" y="797"/>
      <point x="202" y="819"/>
      <point x="254" y="819" type="curve"/>
      <point x="254" y="867" type="line"/>
      <point x="160" y="867"/>
      <point x="104" y="824"/>
      <point x="104" y="749" type="curve" smooth="yes"/>
      <point x="104" y="675"/>
      <point x="160" y="632"/>
    </contour>
  </outline>
</glyph>
<glyph name="seven.midprop" format="2">
  <advance width="694"/>
  <outline>
    <contour>
      <point x="361" y="573" type="line" smooth="yes"/>
      <point x="257" y="573"/>
      <point x="231" y="567"/>
      <point x="220" y="531" type="curve" smooth="yes"/>
      <point x="190" y="430" type="line"/>
      <point x="128" y="430" type="line"/>
      <point x="163" y="648" type="line"/>
      <point x="739" y="648" type="line"/>
      <point x="727" y="572" type="line"/>
      <point x="504" y="404"/>
      <point x="413" y="265"/>
      <point x="344" y="-67" type="curve"/>
      <point x="239" y="-67" type="line"/>
      <point x="314" y="263"/>
      <point x="483" y="470"/>
      <point x="682" y="592" type="curve"/>
      <point x="686" y="573" type="line"/>
    </contour>
  </outline>
</glyph>
<glyph name="three.linprop" format="2">
  <advance width="709"/>
  <outline>
    <contour>
      <point x="407" y="373" type="line"/>
      <point x="570" y="376"/>
      <point x="687.0" y="431.0"/>
      <point x="687" y="570" type="curve" smooth="yes"/>
      <point x="687" y="668"/>
      <point x="602.0" y="733.0"/>
      <point x="450" y="733" type="curve" smooth="yes"/>
      <point x="348" y="733"/>
      <point x="255" y="703"/>
      <point x="195" y="670" type="curve"/>
      <point x="173" y="527" type="line"/>
      <point x="263" y="527" type="line"/>
      <point x="286" y="676" type="line"/>
      <point x="252" y="672"/>
      <point x="233" y="627"/>
      <point x="237" y="613" type="curve"/>
      <point x="283" y="647"/>
      <point x="352" y="668"/>
      <point x="426" y="669" type="curve" smooth="yes"/>
      <point x="533" y="670"/>
      <point x="592.0" y="636.0"/>
      <point x="592" y="558" type="curve" smooth="yes"/>
      <point x="592" y="443"/>
      <point x="496" y="405"/>
      <point x="366" y="405" type="curve" smooth="yes"/>
      <point x="257" y="405" type="line"/>
      <point x="247" y="343" type="line"/>
      <point x="372" y="343" type="line" smooth="yes"/>
      <point x="506" y="343"/>
      <point x="588.0" y="309.0"/>
      <point x="588" y="209" type="curve" smooth="yes"/>
      <point x="588" y="103"/>
      <point x="512.0" y="58.0"/>
      <point x="380" y="58" type="curve" smooth="yes"/>
      <point x="269" y="58"/>
      <point x="177" y="110"/>
      <point x="137" y="193" type="curve"/>
      <point x="63" y="154" type="line"/>
      <point x="101" y="55"/>
      <point x="231.0" y="-6"/>
      <point x="372" y="-6" type="curve" smooth="yes"/>
      <point x="570" y="-6"/>
      <point x="682.0" y="72.0"/>
      <point x="682" y="199" type="curve" smooth="yes"/>
      <point x="682" y="317"/>
      <point x="597" y="376"/>
      <point x="420" y="378" type="curve"/>
      <point x="509" y="357" type="line"/>
      <point x="515" y="396" type="line"/>
    </contour>
  </outline>
</glyph>
<glyph name="three.oldtab" format="2">
  <advance width="680"/>
  <outline>
    <contour>
      <point x="356" y="-130" type="curve" smooth="yes"/>
      <point x="549" y="-130"/>
      <point x="656.0" y="-52.0"/>
      <point x="656" y="85" type="curve" smooth="yes"/>
      <point x="656" y="193"/>
      <point x="571" y="252"/>
      <point x="394" y="254" type="curve"/>
      <point x="483" y="233" type="line"/>
      <point x="489" y="272" type="line"/>
      <point x="381" y="249" type="line"/>
      <point x="544" y="252"/>
      <point x="661.0" y="307.0"/>
      <point x="661" y="446" type="curve" smooth="yes"/>
      <point x="661" y="544"/>
      <point x="576.0" y="609.0"/>
      <point x="434" y="609" type="curve" smooth="yes"/>
      <point x="332" y="609"/>
      <point x="249" y="579"/>
      <point x="189" y="546" type="curve"/>
      <point x="167" y="403" type="line"/>
      <point x="257" y="403" type="line"/>
      <point x="280" y="552" type="line"/>
      <point x="246" y="548"/>
      <point x="227" y="503"/>
      <point x="231" y="489" type="curve"/>
      <point x="277" y="523"/>
      <point x="336" y="544"/>
      <point x="410" y="545" type="curve" smooth="yes"/>
      <point x="507" y="546"/>
      <point x="566.0" y="512.0"/>
      <point x="566" y="430" type="curve" smooth="yes"/>
      <point x="566.0" y="319.0"/>
      <point x="470.0" y="281.0"/>
      <point x="340" y="281" type="curve" smooth="yes"/>
      <point x="252" y="281" type="line"/>
      <point x="242" y="219" type="line"/>
      <point x="346" y="219" type="line" smooth="yes"/>
      <point x="480.0" y="219.0"/>
      <point x="562.0" y="185.0"/>
      <point x="562" y="85" type="curve" smooth="yes"/>
      <point x="562" y="-21"/>
      <point x="486.0" y="-66.0"/>
      <point x="374" y="-66" type="curve" smooth="yes"/>
      <point x="253.0" y="-66"/>
      <point x="171" y="-14"/>
      <point x="131" y="69" type="curve"/>
      <point x="57" y="30" type="line"/>
      <point x="95" y="-69"/>
      <point x="215" y="-130"/>
    </contour>
  </outline>
</glyph>
<glyph name="two.oldtab" format="2">
  <advance width="680"/>
  <outline>
    <contour>
      <point x="664" y="65" type="line"/>
      <point x="135" y="65" type="line"/>
      <point x="137" y="44" type="line"/>
      <point x="437" y="184"/>
      <point x="661" y="256"/>
      <point x="661" y="429" type="curve" smooth="yes"/>
      <point x="661.0" y="549.0"/>
      <point x="564" y="608.0"/>
      <point x="415" y="608" type="curve" smooth="yes"/>
      <point x="311.0" y="608.0"/>
      <point x="216" y="572"/>
      <point x="180" y="547" type="curve"/>
      <point x="156" y="398" type="line"/>
      <point x="246" y="398" type="line"/>
      <point x="270" y="538" type="line"/>
      <point x="239" y="545"/>
      <point x="222" y="522"/>
      <point x="223" y="497" type="curve"/>
      <point x="268" y="524"/>
      <point x="320" y="546"/>
      <point x="406" y="546" type="curve" smooth="yes"/>
      <point x="506.0" y="546.0"/>
      <point x="560.0" y="503"/>
      <point x="560" y="423" type="curve" smooth="yes"/>
      <point x="560" y="285"/>
      <point x="423" y="238"/>
      <point x="100" y="83" type="curve"/>
      <point x="87" y="0" type="line"/>
      <point x="656" y="0" type="line"/>
    </contour>
  </outline>
</glyph>
<glyph name="zero.lintab" format="2">
  <advance width="680"/>
  <outline>
    <contour>
      <point x="682.0" y="600"/>
      <point x="617" y="735.0"/>
      <point x="419" y="735" type="curve" smooth="yes"/>
      <point x="186" y="735"/>
      <point x="102" y="518"/>
      <point x="102" y="308" type="curve" smooth="yes"/>
      <point x="102.0" y="126"/>
      <point x="173" y="-11.0"/>
      <point x="366" y="-11" type="curve" smooth="yes"/>
      <point x="598" y="-11"/>
      <point x="682" y="207"/>
      <point x="682" y="418" type="curve" smooth="yes"/>
    </contour>
    <contour>
      <point x="368" y="51" type="curve"/>
      <point x="257" y="51.0"/>
      <point x="200.0" y="128"/>
      <point x="200" y="293" type="curve"/>
      <point x="200" y="454"/>
      <point x="231" y="673"/>
      <point x="422" y="673" type="curve" smooth="yes"/>
      <point x="541" y="673.0"/>
      <point x="585.0" y="578"/>
      <point x="585" y="434" type="curve"/>
      <point x="585" y="276"/>
      <point x="553" y="51"/>
    </contour>
  </outline>
</glyph>
<glyph name="zero.oldprop" format="2">
  <advance width="746"/>
  <outline>
    <contour>
      <point x="443" y="546" type="curve" smooth="yes"/>
      <point x="576.0" y="546.0"/>
      <point x="634" y="475"/>
      <point x="634" y="352" type="curve" smooth="yes"/>
      <point x="634" y="191"/>
      <point x="553" y="51.0"/>
      <point x="396" y="51" type="curve" smooth="yes"/>
      <point x="263.0" y="51"/>
      <point x="207" y="127"/>
      <point x="207" y="250" type="curve" smooth="yes"/>
      <point x="207" y="414"/>
      <point x="288" y="546.0"/>
    </contour>
    <contour>
      <point x="437" y="608" type="curve" smooth="yes"/>
      <point x="212" y="608"/>
      <point x="108" y="433"/>
      <point x="108" y="270" type="curve" smooth="yes"/>
      <point x="108.0" y="97"/>
      <point x="208" y="-11.0"/>
      <point x="404" y="-11" type="curve" smooth="yes"/>
      <point x="628" y="-11"/>
      <point x="733" y="165"/>
      <point x="733" y="329" type="curve" smooth="yes"/>
      <point x="733.0" y="493"/>
      <point x="634" y="608.0"/>
    </contour>
  </outline>
</glyph>
<glyph name="zero.oldtab" format="2">
  <advance width="689"/>
  <outline>
    <contour>
      <point x="376" y="-11" type="curve" smooth="yes"/>
      <point x="582" y="-11"/>
      <point x="674" y="160"/>
      <point x="674" y="326" type="curve" smooth="yes"/>
      <point x="674.0" y="489"/>
      <point x="595" y="608.0"/>
      <point x="408" y="608" type="curve" smooth="yes"/>
      <point x="202" y="608"/>
      <point x="109" y="437"/>
      <point x="109" y="271" type="curve" smooth="yes"/>
      <point x="109.0" y="100"/>
      <point x="188" y="-11.0"/>
    </contour>
    <contour>
      <point x="371" y="42" type="curve" smooth="yes"/>
      <point x="257.0" y="42"/>
      <point x="208" y="130"/>
      <point x="208" y="250" type="curve" smooth="yes"/>
      <point x="208.0" y="406"/>
      <point x="264" y="555"/>
      <point x="411" y="555" type="curve" smooth="yes"/>
      <point x="523.0" y="555.0"/>
      <point x="575" y="475"/>
      <point x="575" y="349" type="curve" smooth="yes"/>
      <point x="575.0" y="187"/>
      <point x="519" y="42"/>
    </contour>
  </outline>
</glyph>
<glyph name="zero.slash" format="2">
  <advance width="680"/>
  <outline>
    <contour>
      <point x="344" y="-11" type="curve" smooth="yes"/>
      <point x="508" y="-11"/>
      <point x="681" y="107"/>
      <point x="681" y="389" type="curve" smooth="yes"/>
      <point x="681" y="564"/>
      <point x="573" y="649"/>
      <point x="438" y="649" type="curve" smooth="yes"/>
      <point x="274" y="649"/>
      <point x="101" y="531"/>
      <point x="101" y="249" type="curve" smooth="yes"/>
      <point x="101" y="74"/>
      <point x="210" y="-11"/>
    </contour>
    <contour>
      <point x="359" y="53" type="curve"/>
      <point x="265" y="53.0"/>
      <point x="195.0" y="112"/>
      <point x="195" y="259" type="curve" smooth="yes"/>
      <point x="195" y="498"/>
      <point x="312" y="585"/>
      <point x="423" y="585" type="curve"/>
      <point x="520" y="585.0"/>
      <point x="587.0" y="524"/>
      <point x="587" y="379" type="curve" smooth="yes"/>
      <point x="587" y="140"/>
      <point x="470" y="53"/>
    </contour>
    <contour>
      <point x="177" y="139" type="line"/>
      <point x="625" y="448" type="line"/>
      <point x="607" y="508" type="line"/>
      <point x="154" y="198" type="line"/>
    </contour>
  </outline>
</glyph>
